<svg xmlns="http://www.w3.org/2000/svg" xmlns:xlink="http://www.w3.org/1999/xlink" width="500" zoomAndPan="magnify" viewBox="0 0 375 374.999991" height="500" preserveAspectRatio="xMidYMid meet" version="1.2"><defs><clipPath id="a6ac9f8cc3"><path d="M 36.441406 59.503906 L 321.304688 59.503906 L 321.304688 181.003906 L 36.441406 181.003906 Z M 36.441406 59.503906 "/></clipPath></defs><g id="cf16bf880e"><g clip-rule="nonzero" clip-path="url(#a6ac9f8cc3)"><path style=" stroke:none;fill-rule:nonzero;fill:#002ef4;fill-opacity:1;" d="M 321.292969 84.6875 L 321.292969 155.84375 C 321.292969 169.726562 310.03125 181.023438 296.191406 181.023438 L 61.40625 181.023438 C 47.566406 181.023438 36.304688 169.730469 36.304688 155.84375 L 36.304688 84.6875 C 36.304688 70.808594 47.566406 59.511719 61.40625 59.511719 L 296.191406 59.511719 C 310.03125 59.511719 321.292969 70.808594 321.292969 84.6875 Z M 321.292969 84.6875 "/></g><path style=" stroke:none;fill-rule:nonzero;fill:#000000;fill-opacity:1;" d="M 296.191406 70.671875 L 61.40625 70.671875 C 53.699219 70.671875 47.433594 76.957031 47.433594 84.6875 L 47.433594 155.84375 C 47.433594 163.574219 53.699219 169.859375 61.40625 169.859375 L 296.191406 169.859375 C 303.898438 169.859375 310.164062 163.574219 310.164062 155.84375 L 310.164062 84.6875 C 310.164062 76.957031 303.890625 70.671875 296.191406 70.671875 Z M 303.136719 155.84375 C 303.136719 159.6875 300.019531 162.8125 296.191406 162.8125 L 61.40625 162.8125 C 57.578125 162.8125 54.460938 159.6875 54.460938 155.84375 L 54.460938 84.6875 C 54.460938 80.847656 57.578125 77.722656 61.40625 77.722656 L 296.191406 77.722656 C 300.019531 77.722656 303.136719 80.847656 303.136719 84.6875 Z M 113.410156 93.453125 L 75.539062 93.453125 C 70.410156 93.453125 66.234375 97.644531 66.234375 102.789062 L 66.234375 140.773438 C 66.234375 145.921875 70.410156 150.109375 75.539062 150.109375 L 113.410156 150.109375 C 118.542969 150.109375 122.71875 145.921875 122.71875 140.773438 L 122.71875 102.78125 C 122.71875 97.636719 118.542969 93.453125 113.410156 93.453125 Z M 115.691406 140.769531 C 115.691406 142.027344 114.671875 143.054688 113.410156 143.054688 L 75.539062 143.054688 C 74.289062 143.054688 73.261719 142.03125 73.261719 140.769531 L 73.261719 102.78125 C 73.261719 101.527344 74.28125 100.496094 75.539062 100.496094 L 113.410156 100.496094 C 114.664062 100.496094 115.691406 101.519531 115.691406 102.78125 Z M 112.125 112.652344 L 95.308594 135.140625 C 94.714844 135.933594 93.820312 136.441406 92.84375 136.535156 C 92.726562 136.546875 92.613281 136.550781 92.496094 136.550781 C 91.636719 136.550781 90.796875 136.234375 90.148438 135.644531 L 79.265625 125.839844 C 77.824219 124.542969 77.703125 122.3125 79.003906 120.867188 C 80.296875 119.414062 82.523438 119.296875 83.960938 120.601562 L 91.988281 127.832031 L 106.496094 108.429688 C 107.660156 106.871094 109.863281 106.554688 111.414062 107.722656 C 112.972656 108.882812 113.289062 111.089844 112.125 112.652344 Z M 132.148438 112.441406 C 132.113281 112.160156 132.09375 111.734375 132.09375 111.171875 L 132.09375 91.609375 C 132.09375 91.070312 132.113281 90.664062 132.148438 90.394531 C 132.183594 90.125 132.292969 89.8125 132.480469 89.460938 C 132.832031 88.847656 133.746094 88.542969 135.222656 88.542969 C 135.855469 88.542969 136.398438 88.621094 136.855469 88.773438 C 137.3125 88.925781 137.613281 89.082031 137.753906 89.246094 L 137.964844 89.460938 L 145.941406 99.964844 C 149.925781 94.675781 152.582031 91.1875 153.917969 89.496094 C 154.316406 88.859375 155.257812 88.542969 156.746094 88.542969 C 158.234375 88.542969 159.144531 88.859375 159.472656 89.496094 C 159.660156 89.847656 159.769531 90.164062 159.804688 90.445312 C 159.839844 90.726562 159.859375 91.140625 159.859375 91.679688 L 159.859375 111.242188 C 159.859375 112.863281 159.414062 113.816406 158.523438 114.097656 C 158.078125 114.238281 157.515625 114.308594 156.835938 114.308594 C 156.15625 114.308594 155.617188 114.25 155.21875 114.132812 C 154.820312 114.015625 154.515625 113.875 154.304688 113.710938 C 154.09375 113.546875 153.929688 113.3125 153.8125 113.003906 C 153.695312 112.605469 153.636719 111.996094 153.636719 111.171875 L 153.636719 99.363281 C 153.050781 100.09375 152.195312 101.25 151.070312 102.835938 C 149.949219 104.421875 149.234375 105.414062 148.929688 105.816406 C 148.625 106.214844 148.414062 106.488281 148.296875 106.644531 C 148.179688 106.796875 147.890625 107.007812 147.433594 107.277344 C 146.976562 107.546875 146.484375 107.683594 145.957031 107.683594 C 145.433594 107.683594 144.953125 107.558594 144.519531 107.3125 C 144.085938 107.066406 143.773438 106.824219 143.585938 106.589844 L 143.304688 106.203125 C 142.835938 105.613281 141.910156 104.363281 140.53125 102.449219 C 139.148438 100.53125 138.398438 99.503906 138.28125 99.363281 L 138.28125 111.242188 C 138.28125 111.785156 138.261719 112.1875 138.226562 112.457031 C 138.191406 112.730469 138.082031 113.027344 137.894531 113.359375 C 137.542969 113.992188 136.628906 114.308594 135.152344 114.308594 C 133.722656 114.308594 132.832031 113.992188 132.480469 113.359375 C 132.292969 113.027344 132.183594 112.722656 132.148438 112.441406 Z M 163.828125 114.0625 C 164.625 114.460938 165.25 114.660156 165.707031 114.660156 C 166.164062 114.660156 166.539062 114.550781 166.832031 114.328125 C 167.125 114.105469 167.335938 113.886719 167.464844 113.675781 C 167.59375 113.464844 167.777344 113.121094 168.011719 112.652344 L 169.835938 108.847656 L 179.570312 108.847656 L 181.398438 112.652344 C 181.632812 113.121094 181.816406 113.476562 181.945312 113.710938 C 182.074219 113.945312 182.285156 114.167969 182.578125 114.378906 C 182.871094 114.589844 183.246094 114.695312 183.699219 114.695312 C 184.15625 114.695312 184.785156 114.496094 185.582031 114.097656 C 186.941406 113.417969 187.621094 112.652344 187.621094 111.808594 C 187.621094 111.40625 187.421875 110.808594 187.023438 110.007812 L 177.535156 90.339844 C 176.925781 89.117188 175.988281 88.507812 174.722656 88.507812 C 174.136719 88.507812 173.582031 88.671875 173.054688 89 C 172.527344 89.328125 172.132812 89.765625 171.875 90.304688 L 162.386719 110.007812 C 161.988281 110.808594 161.789062 111.40625 161.789062 111.808594 C 161.789062 112.652344 162.46875 113.40625 163.828125 114.0625 Z M 174.6875 98.800781 L 177.042969 103.628906 L 172.367188 103.628906 Z M 189.605469 112.441406 C 189.570312 112.160156 189.550781 111.746094 189.550781 111.207031 L 189.550781 91.539062 C 189.550781 90.644531 189.664062 89.992188 189.886719 89.582031 C 190.109375 89.171875 190.441406 88.894531 190.886719 88.753906 C 191.332031 88.613281 191.90625 88.542969 192.609375 88.542969 C 193.3125 88.542969 193.867188 88.605469 194.277344 88.738281 C 194.6875 88.867188 194.976562 89.011719 195.140625 89.175781 C 195.234375 89.246094 195.503906 89.554688 195.949219 90.09375 C 200.890625 96.839844 204.195312 101.289062 205.859375 103.453125 L 205.859375 91.539062 C 205.859375 90.644531 205.96875 89.992188 206.191406 89.582031 C 206.414062 89.171875 206.75 88.894531 207.195312 88.753906 C 207.636719 88.613281 208.195312 88.542969 208.863281 88.542969 C 209.53125 88.542969 210.070312 88.601562 210.480469 88.71875 C 210.890625 88.835938 211.195312 88.976562 211.394531 89.140625 C 211.59375 89.304688 211.738281 89.554688 211.832031 89.882812 C 211.972656 90.257812 212.042969 90.859375 212.042969 91.679688 L 212.042969 111.242188 C 212.042969 111.808594 212.027344 112.21875 211.992188 112.476562 C 211.957031 112.734375 211.84375 113.039062 211.65625 113.394531 C 211.328125 114.027344 210.414062 114.34375 208.914062 114.34375 C 208 114.34375 207.371094 114.273438 207.019531 114.132812 C 206.667969 113.992188 206.375 113.769531 206.140625 113.464844 C 200.867188 106.414062 197.402344 101.808594 195.738281 99.644531 L 195.738281 111.242188 C 195.738281 111.808594 195.71875 112.21875 195.683594 112.476562 C 195.648438 112.734375 195.539062 113.039062 195.351562 113.394531 C 195.023438 114.027344 194.109375 114.34375 192.609375 114.34375 C 191.15625 114.34375 190.265625 114.027344 189.9375 113.394531 C 189.75 113.039062 189.640625 112.722656 189.605469 112.441406 Z M 229.71875 90.339844 C 229.109375 89.117188 228.171875 88.507812 226.90625 88.507812 C 226.324219 88.507812 225.765625 88.671875 225.238281 89 C 224.710938 89.328125 224.320312 89.765625 224.0625 90.304688 L 214.574219 110.007812 C 214.175781 110.808594 213.976562 111.40625 213.976562 111.808594 C 213.976562 112.652344 214.65625 113.40625 216.015625 114.0625 C 216.8125 114.460938 217.4375 114.660156 217.894531 114.660156 C 218.351562 114.660156 218.726562 114.550781 219.019531 114.328125 C 219.3125 114.105469 219.523438 113.886719 219.652344 113.675781 C 219.78125 113.464844 219.960938 113.121094 220.195312 112.652344 L 222.023438 108.847656 L 231.757812 108.847656 L 233.585938 112.652344 C 233.820312 113.121094 234 113.476562 234.128906 113.710938 C 234.257812 113.945312 234.46875 114.167969 234.761719 114.378906 C 235.054688 114.589844 235.429688 114.695312 235.886719 114.695312 C 236.34375 114.695312 236.96875 114.496094 237.765625 114.097656 C 239.125 113.417969 239.804688 112.652344 239.804688 111.808594 C 239.804688 111.40625 239.605469 110.808594 239.207031 110.007812 Z M 224.554688 103.628906 L 226.871094 98.800781 L 229.226562 103.628906 Z M 254.179688 114.695312 C 250.6875 114.695312 247.652344 113.375 245.078125 110.730469 C 242.5 108.089844 241.210938 104.898438 241.210938 101.160156 C 241.210938 97.425781 242.523438 94.304688 245.148438 91.804688 C 247.769531 89.300781 250.863281 88.050781 254.425781 88.050781 C 257.1875 88.050781 259.800781 88.964844 262.261719 90.796875 C 262.894531 91.269531 263.210938 91.792969 263.210938 92.367188 C 263.210938 92.941406 262.941406 93.605469 262.402344 94.359375 C 261.488281 95.605469 260.65625 96.226562 259.90625 96.226562 C 259.460938 96.226562 258.746094 95.902344 257.761719 95.257812 C 256.777344 94.613281 255.605469 94.289062 254.25 94.289062 C 252.46875 94.289062 250.886719 94.917969 249.503906 96.175781 C 248.121094 97.429688 247.429688 99.078125 247.429688 101.109375 C 247.429688 103.140625 248.132812 104.867188 249.539062 106.289062 C 250.945312 107.710938 252.539062 108.421875 254.320312 108.421875 C 255.605469 108.421875 256.765625 108.210938 257.796875 107.789062 L 257.796875 103.945312 L 255.019531 103.945312 C 254.296875 103.945312 253.78125 103.851562 253.476562 103.664062 C 253.171875 103.476562 252.972656 103.199219 252.878906 102.835938 C 252.785156 102.472656 252.738281 101.976562 252.738281 101.355469 C 252.738281 100.734375 252.789062 100.234375 252.894531 99.859375 C 253 99.480469 253.195312 99.222656 253.476562 99.082031 C 253.898438 98.871094 254.460938 98.765625 255.160156 98.765625 L 261.347656 98.765625 C 262.613281 98.8125 263.386719 99.140625 263.667969 99.75 C 263.902344 100.199219 264.019531 100.855469 264.019531 101.726562 L 264.019531 109.480469 C 264.019531 110.230469 263.691406 110.949219 263.035156 111.628906 C 261.066406 113.675781 258.113281 114.695312 254.179688 114.695312 Z M 273.050781 94.746094 L 273.050781 98.304688 L 280.007812 98.304688 C 280.546875 98.304688 280.949219 98.324219 281.21875 98.359375 C 281.488281 98.394531 281.800781 98.507812 282.152344 98.695312 C 282.785156 99.023438 283.101562 99.941406 283.101562 101.445312 C 283.101562 103.089844 282.65625 104.050781 281.765625 104.335938 C 281.367188 104.476562 280.757812 104.546875 279.9375 104.546875 L 273.050781 104.546875 L 273.050781 108.105469 L 283.871094 108.105469 C 284.410156 108.105469 284.816406 108.125 285.085938 108.160156 C 285.355469 108.195312 285.664062 108.304688 286.015625 108.492188 C 286.648438 108.824219 286.964844 109.738281 286.964844 111.242188 C 286.964844 112.886719 286.53125 113.851562 285.664062 114.132812 C 285.265625 114.273438 284.65625 114.34375 283.835938 114.34375 L 269.921875 114.34375 C 268.28125 114.34375 267.320312 113.898438 267.039062 113.003906 C 266.898438 112.628906 266.828125 112.03125 266.828125 111.207031 L 266.828125 91.609375 C 266.828125 90.410156 267.050781 89.59375 267.496094 89.160156 C 267.941406 88.726562 268.785156 88.507812 270.027344 88.507812 L 283.871094 88.507812 C 284.410156 88.507812 284.816406 88.523438 285.085938 88.558594 C 285.355469 88.59375 285.664062 88.707031 286.015625 88.894531 C 286.648438 89.222656 286.964844 90.140625 286.964844 91.644531 C 286.964844 93.289062 286.53125 94.253906 285.664062 94.535156 C 285.265625 94.675781 284.65625 94.746094 283.835938 94.746094 Z M 153.285156 127.65625 L 146.574219 127.65625 L 146.574219 145.386719 C 146.574219 145.925781 146.554688 146.328125 146.519531 146.585938 C 146.484375 146.84375 146.378906 147.144531 146.203125 147.484375 C 146.027344 147.824219 145.71875 148.066406 145.273438 148.207031 C 144.828125 148.347656 144.242188 148.417969 143.515625 148.417969 C 142.789062 148.417969 142.210938 148.347656 141.777344 148.207031 C 141.34375 148.066406 141.039062 147.824219 140.863281 147.484375 C 140.6875 147.144531 140.582031 146.835938 140.546875 146.566406 C 140.511719 146.296875 140.496094 145.890625 140.496094 145.351562 L 140.496094 127.65625 L 133.746094 127.65625 C 132.996094 127.65625 132.445312 127.570312 132.09375 127.390625 C 131.742188 127.214844 131.507812 126.941406 131.394531 126.5625 C 131.277344 126.1875 131.21875 125.695312 131.21875 125.082031 C 131.21875 124.472656 131.277344 123.984375 131.394531 123.621094 C 131.507812 123.257812 131.707031 123.003906 131.988281 122.863281 C 132.410156 122.652344 133.007812 122.546875 133.78125 122.546875 L 153.320312 122.546875 C 154.070312 122.546875 154.621094 122.632812 154.972656 122.808594 C 155.324219 122.988281 155.558594 123.261719 155.675781 123.636719 C 155.792969 124.015625 155.851562 124.507812 155.851562 125.117188 C 155.851562 125.730469 155.792969 126.21875 155.675781 126.582031 C 155.558594 126.945312 155.359375 127.199219 155.078125 127.339844 C 154.65625 127.550781 154.058594 127.65625 153.285156 127.65625 Z M 167.378906 124.414062 C 166.769531 123.191406 165.832031 122.582031 164.566406 122.582031 C 163.980469 122.582031 163.425781 122.746094 162.898438 123.074219 C 162.371094 123.402344 161.976562 123.839844 161.71875 124.378906 L 152.230469 144.082031 C 151.832031 144.882812 151.632812 145.480469 151.632812 145.878906 C 151.632812 146.726562 152.3125 147.476562 153.671875 148.136719 C 154.46875 148.535156 155.097656 148.734375 155.550781 148.734375 C 156.007812 148.734375 156.382812 148.625 156.675781 148.402344 C 156.96875 148.175781 157.179688 147.960938 157.308594 147.75 C 157.4375 147.535156 157.621094 147.195312 157.855469 146.726562 L 159.683594 142.917969 L 169.414062 142.917969 L 171.242188 146.726562 C 171.476562 147.195312 171.660156 147.546875 171.789062 147.785156 C 171.917969 148.019531 172.128906 148.242188 172.421875 148.453125 C 172.714844 148.664062 173.089844 148.769531 173.546875 148.769531 C 174.003906 148.769531 174.628906 148.570312 175.425781 148.171875 C 176.785156 147.488281 177.464844 146.726562 177.464844 145.878906 C 177.464844 145.480469 177.265625 144.882812 176.867188 144.082031 Z M 162.210938 137.703125 L 164.53125 132.875 L 166.886719 137.703125 Z M 195.648438 136.308594 C 196.246094 137.355469 196.546875 138.644531 196.546875 140.171875 C 196.546875 141.699219 196.242188 143.042969 195.632812 144.207031 C 195.023438 145.371094 194.226562 146.269531 193.242188 146.902344 C 191.34375 148.148438 189.316406 148.769531 187.164062 148.769531 C 186.0625 148.769531 185.019531 148.636719 184.035156 148.367188 C 183.050781 148.09375 182.253906 147.761719 181.644531 147.359375 C 180.402344 146.609375 179.535156 145.878906 179.042969 145.175781 L 178.730469 144.789062 C 178.121094 144.035156 177.816406 143.359375 177.816406 142.761719 C 177.816406 142.160156 178.320312 141.367188 179.324219 140.382812 C 179.910156 139.816406 180.53125 139.535156 181.1875 139.535156 C 181.84375 139.535156 182.757812 140.121094 183.929688 141.296875 C 184.257812 141.699219 184.726562 142.078125 185.335938 142.445312 C 185.945312 142.808594 186.507812 142.988281 187.023438 142.988281 C 189.199219 142.988281 190.289062 142.097656 190.289062 140.3125 C 190.289062 139.769531 189.992188 139.316406 189.394531 138.953125 C 188.796875 138.589844 188.054688 138.324219 187.164062 138.160156 C 186.273438 137.996094 185.3125 137.730469 184.28125 137.367188 C 183.25 137.003906 182.289062 136.574219 181.398438 136.082031 C 180.507812 135.585938 179.765625 134.804688 179.167969 133.738281 C 178.570312 132.667969 178.273438 131.382812 178.273438 129.878906 C 178.273438 127.808594 179.039062 126.007812 180.574219 124.46875 C 182.109375 122.925781 184.199219 122.15625 186.847656 122.15625 C 188.253906 122.15625 189.535156 122.339844 190.695312 122.703125 C 191.855469 123.070312 192.65625 123.4375 193.101562 123.816406 L 193.980469 124.484375 C 194.707031 125.164062 195.070312 125.742188 195.070312 126.210938 C 195.070312 126.679688 194.789062 127.328125 194.226562 128.148438 C 193.429688 129.324219 192.609375 129.914062 191.765625 129.914062 C 191.273438 129.914062 190.664062 129.675781 189.9375 129.207031 C 189.867188 129.160156 189.734375 129.042969 189.535156 128.855469 C 189.335938 128.667969 189.152344 128.515625 188.988281 128.398438 C 188.496094 128.089844 187.871094 127.9375 187.109375 127.9375 C 186.347656 127.9375 185.714844 128.121094 185.210938 128.484375 C 184.707031 128.847656 184.457031 129.355469 184.457031 130 C 184.457031 130.648438 184.753906 131.167969 185.351562 131.570312 C 185.949219 131.96875 186.695312 132.238281 187.585938 132.378906 C 188.472656 132.519531 189.445312 132.738281 190.5 133.03125 C 191.554688 133.324219 192.527344 133.683594 193.417969 134.105469 C 194.308594 134.53125 195.050781 135.265625 195.648438 136.308594 Z M 211.269531 134.105469 L 209.863281 135.445312 C 213.449219 138.902344 215.992188 141.496094 217.488281 143.238281 C 218.261719 144.105469 218.648438 144.839844 218.648438 145.441406 C 218.648438 146.039062 218.179688 146.742188 217.242188 147.554688 C 216.308594 148.367188 215.539062 148.769531 214.941406 148.769531 C 214.34375 148.769531 213.625 148.277344 212.78125 147.289062 L 205.050781 138.441406 L 205.050781 145.316406 C 205.050781 145.878906 205.03125 146.292969 204.996094 146.550781 C 204.960938 146.808594 204.851562 147.113281 204.664062 147.464844 C 204.335938 148.101562 203.421875 148.417969 201.921875 148.417969 C 200.28125 148.417969 199.320312 147.972656 199.039062 147.078125 C 198.898438 146.703125 198.828125 146.105469 198.828125 145.28125 L 198.828125 125.683594 C 198.828125 125.140625 198.847656 124.738281 198.882812 124.46875 C 198.917969 124.195312 199.027344 123.886719 199.214844 123.53125 C 199.542969 122.898438 200.457031 122.582031 201.957031 122.582031 C 203.597656 122.582031 204.570312 123.015625 204.875 123.886719 C 204.992188 124.285156 205.050781 124.894531 205.050781 125.71875 L 205.050781 132.449219 C 208.234375 128.855469 210.8125 125.90625 212.78125 123.601562 C 213.601562 122.640625 214.316406 122.15625 214.925781 122.15625 C 215.535156 122.15625 216.308594 122.5625 217.242188 123.375 C 218.179688 124.183594 218.648438 124.890625 218.648438 125.488281 C 218.648438 126.089844 218.296875 126.800781 217.59375 127.621094 C 216.238281 129.195312 214.128906 131.359375 211.269531 134.105469 Z M 238.59375 136.308594 C 239.191406 137.355469 239.488281 138.644531 239.488281 140.171875 C 239.488281 141.699219 239.183594 143.042969 238.574219 144.207031 C 237.964844 145.371094 237.167969 146.269531 236.183594 146.902344 C 234.289062 148.148438 232.261719 148.769531 230.105469 148.769531 C 229.003906 148.769531 227.960938 148.636719 226.976562 148.367188 C 225.996094 148.09375 225.199219 147.761719 224.589844 147.359375 C 223.347656 146.609375 222.480469 145.878906 221.988281 145.175781 L 221.671875 144.789062 C 221.0625 144.035156 220.757812 143.359375 220.757812 142.761719 C 220.757812 142.160156 221.261719 141.367188 222.269531 140.382812 C 222.855469 139.816406 223.476562 139.535156 224.132812 139.535156 C 224.789062 139.535156 225.703125 140.121094 226.871094 141.296875 C 227.199219 141.699219 227.667969 142.078125 228.277344 142.445312 C 228.886719 142.808594 229.449219 142.988281 229.964844 142.988281 C 232.144531 142.988281 233.234375 142.097656 233.234375 140.3125 C 233.234375 139.769531 232.933594 139.316406 232.335938 138.953125 C 231.738281 138.589844 230.996094 138.324219 230.105469 138.160156 C 229.214844 137.996094 228.253906 137.730469 227.222656 137.367188 C 226.195312 137.003906 225.234375 136.574219 224.34375 136.082031 C 223.453125 135.585938 222.707031 134.804688 222.109375 133.738281 C 221.515625 132.667969 221.214844 131.382812 221.214844 129.878906 C 221.214844 127.808594 221.980469 126.007812 223.515625 124.46875 C 225.050781 122.925781 227.140625 122.15625 229.789062 122.15625 C 231.195312 122.15625 232.476562 122.339844 233.636719 122.703125 C 234.796875 123.070312 235.601562 123.4375 236.042969 123.816406 L 236.921875 124.484375 C 237.648438 125.164062 238.011719 125.742188 238.011719 126.210938 C 238.011719 126.679688 237.730469 127.328125 237.167969 128.148438 C 236.371094 129.324219 235.554688 129.914062 234.710938 129.914062 C 234.21875 129.914062 233.609375 129.675781 232.882812 129.207031 C 232.8125 129.160156 232.675781 129.042969 232.476562 128.855469 C 232.277344 128.667969 232.097656 128.515625 231.933594 128.398438 C 231.441406 128.089844 230.816406 127.9375 230.054688 127.9375 C 229.292969 127.9375 228.660156 128.121094 228.15625 128.484375 C 227.652344 128.847656 227.398438 129.355469 227.398438 130 C 227.398438 130.648438 227.699219 131.167969 228.296875 131.570312 C 228.894531 131.96875 229.636719 132.238281 230.527344 132.378906 C 231.417969 132.519531 232.390625 132.738281 233.445312 133.03125 C 234.5 133.324219 235.472656 133.683594 236.359375 134.105469 C 237.25 134.53125 237.996094 135.265625 238.59375 136.308594 Z M 281.378906 122.382812 C 281.378906 121.628906 281.089844 120.878906 280.523438 120.300781 C 279.378906 119.15625 277.523438 119.15625 276.382812 120.300781 C 271.808594 124.890625 268.007812 127.027344 264.410156 127.027344 C 260.8125 127.027344 257.011719 124.890625 252.4375 120.300781 C 251.296875 119.15625 249.441406 119.15625 248.296875 120.300781 C 247.722656 120.878906 247.441406 121.628906 247.441406 122.382812 C 247.441406 123.132812 247.730469 123.886719 248.296875 124.460938 C 257.246094 133.4375 257.246094 139.5 248.296875 148.476562 C 247.722656 149.050781 247.441406 149.804688 247.441406 150.554688 C 247.441406 151.308594 247.730469 152.058594 248.296875 152.636719 C 249.441406 153.78125 251.296875 153.78125 252.4375 152.636719 C 261.386719 143.660156 267.433594 143.660156 276.382812 152.636719 C 276.957031 153.210938 277.707031 153.492188 278.457031 153.492188 C 279.203125 153.492188 279.953125 153.207031 280.527344 152.636719 C 281.101562 152.058594 281.382812 151.308594 281.382812 150.554688 C 281.382812 149.804688 281.097656 149.050781 280.527344 148.476562 C 271.578125 139.5 271.578125 133.4375 280.527344 124.460938 C 281.089844 123.886719 281.378906 123.132812 281.378906 122.382812 Z M 268.476562 140.546875 C 265.75 139.789062 263.0625 139.789062 260.339844 140.546875 C 261.09375 137.800781 261.09375 135.09375 260.328125 132.351562 C 263.046875 133.089844 265.761719 133.089844 268.480469 132.351562 C 267.71875 135.09375 267.71875 137.808594 268.476562 140.546875 Z M 268.476562 140.546875 "/></g></svg>